<svg width="16" height="16" viewBox="0 0 16 16" fill="none" xmlns="http://www.w3.org/2000/svg">
<path d="M10.8267 5.17334L9.62401 8.78067C9.55855 8.97706 9.44827 9.15551 9.30189 9.30189C9.15551 9.44827 8.97706 9.55855 8.78067 9.62401L5.17334 10.8267L6.37601 7.21934C6.44146 7.02295 6.55175 6.8445 6.69812 6.69812C6.8445 6.55175 7.02295 6.44146 7.21934 6.37601L10.8267 5.17334Z" stroke="black" stroke-width="1.33333" stroke-linecap="round" stroke-linejoin="round"/>
<path d="M8.00001 14.6666C11.6819 14.6666 14.6667 11.6819 14.6667 7.99998C14.6667 4.31808 11.6819 1.33331 8.00001 1.33331C4.31811 1.33331 1.33334 4.31808 1.33334 7.99998C1.33334 11.6819 4.31811 14.6666 8.00001 14.6666Z" stroke="black" stroke-width="1.33333" stroke-linecap="round" stroke-linejoin="round"/>
</svg>
