<svg width="16" height="16" viewBox="0 0 16 16" fill="none" xmlns="http://www.w3.org/2000/svg">
<path d="M3.33334 3.66665C3.33334 3.04781 3.57917 2.45432 4.01675 2.01673C4.45434 1.57915 5.04783 1.33331 5.66667 1.33331H8V5.99998H5.66667C5.04783 5.99998 4.45434 5.75415 4.01675 5.31656C3.57917 4.87898 3.33334 4.28548 3.33334 3.66665Z" stroke="black" stroke-width="1.33333" stroke-linecap="round" stroke-linejoin="round"/>
<path d="M8 1.33331H10.3333C10.6398 1.33331 10.9432 1.39367 11.2263 1.51093C11.5094 1.62819 11.7666 1.80006 11.9832 2.01673C12.1999 2.2334 12.3718 2.49063 12.4891 2.77372C12.6063 3.05681 12.6667 3.36023 12.6667 3.66665C12.6667 3.97306 12.6063 4.27648 12.4891 4.55957C12.3718 4.84267 12.1999 5.09989 11.9832 5.31656C11.7666 5.53323 11.5094 5.7051 11.2263 5.82237C10.9432 5.93963 10.6398 5.99998 10.3333 5.99998H8V1.33331Z" stroke="black" stroke-width="1.33333" stroke-linecap="round" stroke-linejoin="round"/>
<path d="M8 8.33333C8 8.02692 8.06035 7.7235 8.17761 7.44041C8.29488 7.15731 8.46675 6.90009 8.68342 6.68342C8.90009 6.46675 9.15731 6.29488 9.44041 6.17761C9.7235 6.06035 10.0269 6 10.3333 6C10.6398 6 10.9432 6.06035 11.2263 6.17761C11.5094 6.29488 11.7666 6.46675 11.9832 6.68342C12.1999 6.90009 12.3718 7.15731 12.4891 7.44041C12.6063 7.7235 12.6667 8.02692 12.6667 8.33333C12.6667 8.63975 12.6063 8.94317 12.4891 9.22626C12.3718 9.50935 12.1999 9.76658 11.9832 9.98325C11.7666 10.1999 11.5094 10.3718 11.2263 10.4891C10.9432 10.6063 10.6398 10.6667 10.3333 10.6667C10.0269 10.6667 9.7235 10.6063 9.44041 10.4891C9.15731 10.3718 8.90009 10.1999 8.68342 9.98325C8.46675 9.76658 8.29488 9.50935 8.17761 9.22626C8.06035 8.94317 8 8.63975 8 8.33333Z" stroke="black" stroke-width="1.33333" stroke-linecap="round" stroke-linejoin="round"/>
<path d="M3.33334 13C3.33334 12.3812 3.57917 11.7877 4.01675 11.3501C4.45434 10.9125 5.04783 10.6667 5.66667 10.6667H8V13C8 13.6189 7.75417 14.2124 7.31659 14.6499C6.879 15.0875 6.28551 15.3334 5.66667 15.3334C5.04783 15.3334 4.45434 15.0875 4.01675 14.6499C3.57917 14.2124 3.33334 13.6189 3.33334 13Z" stroke="black" stroke-width="1.33333" stroke-linecap="round" stroke-linejoin="round"/>
<path d="M3.33334 8.33333C3.33334 7.71449 3.57917 7.121 4.01675 6.68342C4.45434 6.24583 5.04783 6 5.66667 6H8V10.6667H5.66667C5.04783 10.6667 4.45434 10.4208 4.01675 9.98325C3.57917 9.54566 3.33334 8.95217 3.33334 8.33333Z" stroke="black" stroke-width="1.33333" stroke-linecap="round" stroke-linejoin="round"/>
</svg>
