<svg width="40" height="40" viewBox="0 0 40 40" fill="none" xmlns="http://www.w3.org/2000/svg">
<path d="M16 24H24V20H16V24ZM16 18H32V14H16V18ZM16 12H32V8H16V12ZM12 32C10.9 32 9.95833 31.6083 9.175 30.825C8.39167 30.0417 8 29.1 8 28V4C8 2.9 8.39167 1.95833 9.175 1.175C9.95833 0.391667 10.9 0 12 0H36C37.1 0 38.0417 0.391667 38.825 1.175C39.6083 1.95833 40 2.9 40 4V28C40 29.1 39.6083 30.0417 38.825 30.825C38.0417 31.6083 37.1 32 36 32H12ZM12 28H36V4H12V28ZM4 40C2.9 40 1.95833 39.6083 1.175 38.825C0.391667 38.0417 0 37.1 0 36V8H4V36H32V40H4ZM12 4V28V4Z" fill="white"/>
</svg>
