<svg width="36" height="40" viewBox="0 0 36 40" fill="none" xmlns="http://www.w3.org/2000/svg">
<path d="M6 40C4.33333 40 2.91667 39.4167 1.75 38.25C0.583333 37.0833 0 35.6667 0 34V28H6V0L9 3L12 0L15 3L18 0L21 3L24 0L27 3L30 0L33 3L36 0V34C36 35.6667 35.4167 37.0833 34.25 38.25C33.0833 39.4167 31.6667 40 30 40H6ZM30 36C30.5667 36 31.0417 35.8083 31.425 35.425C31.8083 35.0417 32 34.5667 32 34V6H10V28H28V34C28 34.5667 28.1917 35.0417 28.575 35.425C28.9583 35.8083 29.4333 36 30 36ZM12 14V10H24V14H12ZM12 20V16H24V20H12ZM28 14C27.4333 14 26.9583 13.8083 26.575 13.425C26.1917 13.0417 26 12.5667 26 12C26 11.4333 26.1917 10.9583 26.575 10.575C26.9583 10.1917 27.4333 10 28 10C28.5667 10 29.0417 10.1917 29.425 10.575C29.8083 10.9583 30 11.4333 30 12C30 12.5667 29.8083 13.0417 29.425 13.425C29.0417 13.8083 28.5667 14 28 14ZM28 20C27.4333 20 26.9583 19.8083 26.575 19.425C26.1917 19.0417 26 18.5667 26 18C26 17.4333 26.1917 16.9583 26.575 16.575C26.9583 16.1917 27.4333 16 28 16C28.5667 16 29.0417 16.1917 29.425 16.575C29.8083 16.9583 30 17.4333 30 18C30 18.5667 29.8083 19.0417 29.425 19.425C29.0417 19.8083 28.5667 20 28 20ZM6 36H24V32H4V34C4 34.5667 4.19167 35.0417 4.575 35.425C4.95833 35.8083 5.43333 36 6 36ZM4 36C4 36 4 35.8083 4 35.425C4 35.0417 4 34.5667 4 34V32V36Z" fill="#4B3D7A"/>
</svg>
